<svg fill="none" height="16" viewBox="0 0 16 16" width="16" xmlns="http://www.w3.org/2000/svg"><path clip-rule="evenodd" d="m.290909 11.5945 5.818181-10.46306c.20472-.369677.49562-.66094.81886-.85138.334-.1904409.70033-.28006 1.06666-.28006s.73266.0896191 1.06667.28006c.33401.19044.62492.481703.82963.85138l5.81819 10.46306c.1939.3585.2909.7505.2909 1.1314 0 .4481-.1293.885-.3556 1.2435-.2262.3585-.5495.6609-.9481.8402-.2694.1232-.571.1904-.8835.1904h-11.62559c-.32324 0-.61415-.0672-.88351-.1904-.25858-.1233-.495619-.2913-.689559-.5041-.387878-.4257-.614141-.9859-.614141-1.5796 0-.3809.0861953-.7729.290909-1.1314zm8.709091-7.42783-.0125.175-.3 4.78333v.07292c0 .4375-.3125.80208-.6875.80208s-.6875-.36458-.6875-.80208v-.07292l-.3-4.78333-.0125-.175c0-.64167.45-1.16667 1-1.16667s1 .525 1 1.16667zm-1 8.83333c.55228 0 1-.4477 1-1s-.44772-1-1-1-1 .4477-1 1 .44772 1 1 1z" fill="#b33233" fill-rule="evenodd"/></svg>